<?xml version="1.0" encoding="UTF-8" standalone="no"?>
<!-- Created with Inkscape (http://www.inkscape.org/) -->

<svg
   xmlns:dc="http://purl.org/dc/elements/1.1/"
   xmlns:cc="http://creativecommons.org/ns#"
   xmlns:rdf="http://www.w3.org/1999/02/22-rdf-syntax-ns#"
   xmlns:svg="http://www.w3.org/2000/svg"
   xmlns="http://www.w3.org/2000/svg"
   version="1.1"
   width="208"
   height="92"
   id="svg2">
  <defs
     id="defs4" />
  <metadata
     id="metadata7">
    <rdf:RDF>
      <cc:Work
         rdf:about="">
        <dc:format>image/svg+xml</dc:format>
        <dc:type
           rdf:resource="http://purl.org/dc/dcmitype/StillImage" />
        <dc:title></dc:title>
      </cc:Work>
    </rdf:RDF>
  </metadata>
  <g
     transform="translate(-306.48562,-461.09838)"
     id="layer1">
    <g
       transform="translate(162.85714,148.57143)"
       id="g3251">
      <path
         d="m 171.62848,402.52695 0,-2 -2,0 -2,0 0,-2 0,-2 -2,0 -2,0 0,-2 0,-2 -2,0 -2,0 0,2 0,2 -2,0 -2,0 0,-2 0,-2 -2,0 -2,0 0,-2 0,-2 -2,0 -2,0 0,-2 0,-2 -2,0 -2,0 0,-16 0,-16 2,0 2,0 0,-4 0,-4 4,0 4,0 0,-2 0,-2 4,0 4,0 0,-2 0,-2 6,0 6,0 0,-2 0,-2 12,0 12,0 0,-2 0,-2 6,0 6,0 0,-2 0,-2 2,0 2,0 0,-2 0,-2 6,0 6,0 0,-2 0,-2 10,0 10,0 0,-2 0,-2 12,0 12,0 0,2 0,2 6,0 6,0 0,2 0,2 4,0 4,0 0,2 0,2 4,0 4,0 0,2 0,2 2,0 2,0 0,2 0,2 14,0 14,0 0,2 0,2 2,0 2,0 0,2 0,2 2,0 2,0 0,2 0,2 2,0 2,0 0,2 0,2 2,0 2,0 0,6 0,6 2,0 2,0 0,10 0,10 -2,0 -2,0 0,2 0,2 -2,0 -2,0 0,2 0,2 -2,0 -2,0 0,2 0,2 -4,0 -4,0 0,2 0,2 -2,0 -2,0 0,2 0,2 -2,0 -2,0 0,2 0,2 -8,0 -8,0 0,-2 0,-2 -2,0 -2,0 0,-2 0,-2 -2,0 -2,0 0,-2 0,-2 -2,0 -2,0 0,2 0,2 -48,0 -48,0 0,-2 0,-2 -2,0 -2,0 0,2 0,2 -2,0 -2,0 0,2 0,2 -2,0 -2,0 0,2 0,2 -8,0 -8,0 0,-2 z"
         id="path3271"
         style="fill:#f6f6f6" />
      <path
         d="m 171.62848,402.52695 0,-2 -2,0 -2,0 0,-2 0,-2 -2,0 -2,0 0,-2 0,-2 -2,0 -2,0 0,2 0,2 -2,0 -2,0 0,-2 0,-2 -2,0 -2,0 0,-2 0,-2 -2,0 -2,0 0,-2 0,-2 -2,0 -2,0 0,-16 0,-16 2,0 2,0 0,-4 0,-4 4,0 4,0 0,-2 0,-2 4,0 4,0 0,-2 0,-2 6,0 6,0 0,-2 0,-2 12,0 12,0 0,-2 0,-2 6,0 6,0 0,-2 0,-2 2,0 2,0 0,-2 0,-2 6,0 6,0 0,-2 0,-2 10,0 10,0 0,-2 0,-2 12,0 12,0 0,2 0,2 6,0 6,0 0,2 0,2 4,0 4,0 0,2 0,2 4,0 4,0 0,2 0,2 2,0 2,0 0,2 0,2 14,0 14,0 0,2 0,2 2,0 2,0 0,2 0,2 2,0 2,0 0,2 0,2 2,0 2,0 0,2 0,2 2,0 2,0 0,6 0,6 2,0 2,0 0,10 0,10 -2,0 -2,0 0,2 0,2 -2,0 -2,0 0,2 0,2 -2,0 -2,0 0,2 0,2 -4,0 -4,0 0,2 0,2 -2,0 -2,0 0,2 0,2 -2,0 -2,0 0,2 0,2 -8,0 -8,0 0,-2 0,-2 -2,0 -2,0 0,-2 0,-2 -2,0 -2,0 0,-2 0,-2 -2,0 -2,0 0,2 0,2 -48,0 -48,0 0,-2 0,-2 -2,0 -2,0 0,2 0,2 -2,0 -2,0 0,2 0,2 -2,0 -2,0 0,2 0,2 -8,0 -8,0 0,-2 z m 12,-10 0,-4 -4,0 -4,0 0,4 0,4 4,0 4,0 0,-4 z m 136,0 0,-4 -4,0 -4,0 0,4 0,4 4,0 4,0 0,-4 z m -44,-34 0,-2 4,0 4,0 0,-4 0,-4 -2,0 -2,0 0,2 0,2 -4,0 -4,0 0,4 0,4 2,0 2,0 0,-2 z m -28,-4 0,-2 2,0 2,0 0,-2 0,-2 -4,0 -4,0 0,2 0,2 -4,0 -4,0 0,2 0,2 6,0 6,0 0,-2 z m -40,-12 0,-2 4,0 4,0 0,-2 0,-2 2,0 2,0 0,-2 0,-2 -2,0 -2,0 0,2 0,2 -4,0 -4,0 0,2 0,2 -2,0 -2,0 0,2 0,2 2,0 2,0 0,-2 z m 100,0 0,-2 -2,0 -2,0 0,-2 0,-2 -2,0 -2,0 0,-2 0,-2 -2,0 -2,0 0,2 0,2 2,0 2,0 0,2 0,2 2,0 2,0 0,2 0,2 2,0 2,0 0,-2 z"
         id="path3269"
         style="fill:#6bf1f1" />
      <path
         d="m 171.62848,402.52695 0,-2 -2,0 -2,0 0,-2 0,-2 -2,0 -2,0 0,-2 0,-2 -2,0 -2,0 0,2 0,2 -2,0 -2,0 0,-2 0,-2 -2,0 -2,0 0,-2 0,-2 -2,0 -2,0 0,-2 0,-2 -2,0 -2,0 0,-16 0,-16 2,0 2,0 0,-4 0,-4 4,0 4,0 0,-2 0,-2 4,0 4,0 0,-2 0,-2 6,0 6,0 0,-2 0,-2 12,0 12,0 0,-2 0,-2 6,0 6,0 0,-2 0,-2 2,0 2,0 0,-2 0,-2 6,0 6,0 0,-2 0,-2 10,0 10,0 0,-2 0,-2 12,0 12,0 0,2 0,2 6,0 6,0 0,2 0,2 4,0 4,0 0,2 0,2 4,0 4,0 0,2 0,2 2,0 2,0 0,2 0,2 14,0 14,0 0,2 0,2 2,0 2,0 0,2 0,2 2,0 2,0 0,2 0,2 2,0 2,0 0,2 0,2 2,0 2,0 0,6 0,6 2,0 2,0 0,10 0,10 -2,0 -2,0 0,2 0,2 -2,0 -2,0 0,2 0,2 -2,0 -2,0 0,2 0,2 -4,0 -4,0 0,2 0,2 -2,0 -2,0 0,2 0,2 -2,0 -2,0 0,2 0,2 -8,0 -8,0 0,-2 0,-2 -2,0 -2,0 0,-2 0,-2 -2,0 -2,0 0,-2 0,-2 -2,0 -2,0 0,2 0,2 -48,0 -48,0 0,-2 0,-2 -2,0 -2,0 0,2 0,2 -2,0 -2,0 0,2 0,2 -2,0 -2,0 0,2 0,2 -8,0 -8,0 0,-2 z m 12,-10 0,-4 -4,0 -4,0 0,4 0,4 4,0 4,0 0,-4 z m 136,0 0,-4 -4,0 -4,0 0,4 0,4 4,0 4,0 0,-4 z m -60,-34 0,-6 2,0 2,0 0,6 0,6 16,0 16,0 0,-2 0,-2 4,0 4,0 0,-4 0,-4 2,0 2,0 0,4 0,4 2,0 2,0 0,2 0,2 2,0 2,0 0,-6 0,-6 -2,0 -2,0 0,-4 0,-4 -2,0 -2,0 0,-2 0,-2 -2,0 -2,0 0,-4 0,-4 -2,0 -2,0 0,-2 0,-2 -4,0 -4,0 0,6 0,6 2,0 2,0 0,2 0,2 2,0 2,0 0,2 0,2 -4,0 -4,0 0,-2 0,-2 -12,0 -12,0 0,4 0,4 -2,0 -2,0 0,-4 0,-4 -10,0 -10,0 0,2 0,2 -4,0 -4,0 0,2 0,2 -4,0 -4,0 0,4 0,4 -4,0 -4,0 0,2 0,2 20,0 20,0 0,-6 z m 40,-8 0,-2 2,0 2,0 0,2 0,2 -2,0 -2,0 0,-2 z m -92,8 0,-2 2,0 2,0 0,-2 0,-2 4,0 4,0 0,-2 0,-2 2,0 2,0 0,-2 0,-2 2,0 2,0 0,-2 0,-2 -2,0 -2,0 0,-8 0,-8 -4,0 -4,0 0,2 0,2 -2,0 -2,0 0,2 0,2 -6,0 -6,0 0,4 0,4 -2,0 -2,0 0,8 0,8 2,0 2,0 0,2 0,2 4,0 4,0 0,-2 z"
         id="path3267"
         style="fill:#36cfcf" />
      <path
         d="m 171.62848,402.52695 0,-2 -2,0 -2,0 0,-2 0,-2 -2,0 -2,0 0,-2 0,-2 -2,0 -2,0 0,2 0,2 -2,0 -2,0 0,-2 0,-2 -2,0 -2,0 0,-2 0,-2 -2,0 -2,0 0,-2 0,-2 -2,0 -2,0 0,-16 0,-16 2,0 2,0 0,-4 0,-4 4,0 4,0 0,-2 0,-2 4,0 4,0 0,-2 0,-2 6,0 6,0 0,-2 0,-2 12,0 12,0 0,-2 0,-2 6,0 6,0 0,-2 0,-2 2,0 2,0 0,-2 0,-2 6,0 6,0 0,-2 0,-2 10,0 10,0 0,-2 0,-2 12,0 12,0 0,2 0,2 6,0 6,0 0,2 0,2 4,0 4,0 0,2 0,2 4,0 4,0 0,2 0,2 2,0 2,0 0,2 0,2 14,0 14,0 0,2 0,2 2,0 2,0 0,2 0,2 2,0 2,0 0,2 0,2 2,0 2,0 0,2 0,2 2,0 2,0 0,6 0,6 2,0 2,0 0,10 0,10 -2,0 -2,0 0,2 0,2 -2,0 -2,0 0,2 0,2 -2,0 -2,0 0,2 0,2 -4,0 -4,0 0,2 0,2 -2,0 -2,0 0,2 0,2 -2,0 -2,0 0,2 0,2 -8,0 -8,0 0,-2 0,-2 -2,0 -2,0 0,-2 0,-2 -2,0 -2,0 0,-2 0,-2 -2,0 -2,0 0,2 0,2 -48,0 -48,0 0,-2 0,-2 -2,0 -2,0 0,2 0,2 -2,0 -2,0 0,2 0,2 -2,0 -2,0 0,2 0,2 -8,0 -8,0 0,-2 z m 12,-10 0,-4 -4,0 -4,0 0,4 0,4 4,0 4,0 0,-4 z m 136,0 0,-4 -4,0 -4,0 0,4 0,4 4,0 4,0 0,-4 z m -60,-32 0,-8 2,0 2,0 0,8 0,8 16,0 16,0 0,-2 0,-2 2,0 2,0 0,-2 0,-2 2,0 2,0 0,-4 0,-4 2,0 2,0 0,4 0,4 2,0 2,0 0,2 0,2 2,0 2,0 0,-6 0,-6 -2,0 -2,0 0,-4 0,-4 -2,0 -2,0 0,-2 0,-2 -2,0 -2,0 0,-4 0,-4 -2,0 -2,0 0,-2 0,-2 -4,0 -4,0 0,6 0,6 2,0 2,0 0,2 0,2 2,0 2,0 0,2 0,2 -4,0 -4,0 0,-2 0,-2 -12,0 -12,0 0,4 0,4 -2,0 -2,0 0,-4 0,-4 -10,0 -10,0 0,2 0,2 -4,0 -4,0 0,2 0,2 -4,0 -4,0 0,-2 0,-2 2,0 2,0 0,-2 0,-2 -2,0 -2,0 0,-2 0,-2 -2,0 -2,0 0,-8 0,-8 -4,0 -4,0 0,2 0,2 -2,0 -2,0 0,2 0,2 -6,0 -6,0 0,4 0,4 -2,0 -2,0 0,8 0,8 2,0 2,0 0,2 0,2 2,0 2,0 0,2 0,2 4,0 4,0 0,-2 0,-2 4,0 4,0 0,2 0,2 2,0 2,0 0,2 0,2 18,0 18,0 0,-8 z m -40,-2 0,-2 2,0 2,0 0,-2 0,-2 2,0 2,0 0,4 0,4 -4,0 -4,0 0,-2 z m 80,-8 0,-2 2,0 2,0 0,2 0,2 -2,0 -2,0 0,-2 z"
         id="path3265"
         style="fill:#d9715c" />
      <path
         d="m 171.62848,402.52695 0,-2 -2,0 -2,0 0,-2 0,-2 -2,0 -2,0 0,-2 0,-2 -2,0 -2,0 0,2 0,2 -2,0 -2,0 0,-2 0,-2 -2,0 -2,0 0,-2 0,-2 -2,0 -2,0 0,-2 0,-2 -2,0 -2,0 0,-16 0,-16 2,0 2,0 0,-4 0,-4 4,0 4,0 0,-2 0,-2 4,0 4,0 0,-2 0,-2 6,0 6,0 0,-2 0,-2 12,0 12,0 0,-2 0,-2 6,0 6,0 0,-2 0,-2 2,0 2,0 0,-2 0,-2 6,0 6,0 0,-2 0,-2 10,0 10,0 0,-2 0,-2 12,0 12,0 0,2 0,2 6,0 6,0 0,2 0,2 4,0 4,0 0,2 0,2 4,0 4,0 0,2 0,2 2,0 2,0 0,2 0,2 14,0 14,0 0,2 0,2 2,0 2,0 0,2 0,2 2,0 2,0 0,2 0,2 2,0 2,0 0,2 0,2 2,0 2,0 0,6 0,6 2,0 2,0 0,10 0,10 -2,0 -2,0 0,2 0,2 -2,0 -2,0 0,2 0,2 -2,0 -2,0 0,2 0,2 -4,0 -4,0 0,2 0,2 -2,0 -2,0 0,2 0,2 -2,0 -2,0 0,2 0,2 -8,0 -8,0 0,-2 0,-2 -2,0 -2,0 0,-2 0,-2 -2,0 -2,0 0,-2 0,-2 -2,0 -2,0 0,2 0,2 -48,0 -48,0 0,-2 0,-2 -2,0 -2,0 0,2 0,2 -2,0 -2,0 0,2 0,2 -2,0 -2,0 0,2 0,2 -8,0 -8,0 0,-2 z m 12,-10 0,-4 -4,0 -4,0 0,4 0,4 4,0 4,0 0,-4 z m 136,0 0,-4 -4,0 -4,0 0,4 0,4 4,0 4,0 0,-4 z m -60,-32 0,-8 2,0 2,0 0,8 0,8 16,0 16,0 0,-2 0,-2 2,0 2,0 0,-2 0,-2 2,0 2,0 0,-4 0,-4 2,0 2,0 0,4 0,4 2,0 2,0 0,2 0,2 2,0 2,0 0,-6 0,-6 -2,0 -2,0 0,-4 0,-4 8,0 8,0 0,2 0,2 6,0 6,0 0,-2 0,-2 -2,0 -2,0 0,-2 0,-2 -2,0 -2,0 0,-2 0,-2 -12,0 -12,0 0,2 0,2 -2,0 -2,0 0,-4 0,-4 -2,0 -2,0 0,-2 0,-2 -4,0 -4,0 0,6 0,6 2,0 2,0 0,2 0,2 2,0 2,0 0,2 0,2 -4,0 -4,0 0,-2 0,-2 -12,0 -12,0 0,4 0,4 -2,0 -2,0 0,-4 0,-4 -10,0 -10,0 0,2 0,2 -4,0 -4,0 0,2 0,2 -4,0 -4,0 0,-2 0,-2 2,0 2,0 0,-2 0,-2 -2,0 -2,0 0,-2 0,-2 -2,0 -2,0 0,-8 0,-8 -4,0 -4,0 0,2 0,2 -2,0 -2,0 0,2 0,2 -6,0 -6,0 0,4 0,4 -2,0 -2,0 0,-2 0,-2 -10,0 -10,0 0,2 0,2 -6,0 -6,0 0,2 0,2 -4,0 -4,0 0,2 0,2 -2,0 -2,0 0,2 0,2 -2,0 -2,0 0,4 0,4 2,0 2,0 0,-2 0,-2 2,0 2,0 0,-2 0,-2 4,0 4,0 0,-2 0,-2 4,0 4,0 0,-2 0,-2 10,0 10,0 0,-2 0,-2 2,0 2,0 0,8 0,8 2,0 2,0 0,2 0,2 2,0 2,0 0,2 0,2 4,0 4,0 0,-2 0,-2 4,0 4,0 0,2 0,2 2,0 2,0 0,2 0,2 18,0 18,0 0,-8 z m -40,-2 0,-2 2,0 2,0 0,-2 0,-2 2,0 2,0 0,4 0,4 -4,0 -4,0 0,-2 z m 80,-8 0,-2 2,0 2,0 0,2 0,2 -2,0 -2,0 0,-2 z m 8,-8 0,-2 2,0 2,0 0,2 0,2 -2,0 -2,0 0,-2 z m -76,-12 0,-2 2,0 2,0 0,-2 0,-2 18,0 18,0 0,2 0,2 6,0 6,0 0,2 0,2 2,0 2,0 0,-4 0,-4 -2,0 -2,0 0,-2 0,-2 -6,0 -6,0 0,-2 0,-2 -12,0 -12,0 0,2 0,2 -10,0 -10,0 0,6 0,6 2,0 2,0 0,-2 z"
         id="path3263"
         style="fill:#c93e29" />
      <path
         d="m 171.62848,402.52695 0,-2 -2,0 -2,0 0,-2 0,-2 -2,0 -2,0 0,-2 0,-2 -2,0 -2,0 0,2 0,2 -2,0 -2,0 0,-2 0,-2 -2,0 -2,0 0,-2 0,-2 -2,0 -2,0 0,-2 0,-2 -2,0 -2,0 0,-16 0,-16 2,0 2,0 0,-4 0,-4 4,0 4,0 0,-2 0,-2 4,0 4,0 0,-2 0,-2 6,0 6,0 0,-2 0,-2 12,0 12,0 0,-2 0,-2 6,0 6,0 0,-2 0,-2 2,0 2,0 0,-2 0,-2 6,0 6,0 0,-2 0,-2 10,0 10,0 0,-2 0,-2 12,0 12,0 0,2 0,2 6,0 6,0 0,2 0,2 4,0 4,0 0,2 0,2 4,0 4,0 0,2 0,2 2,0 2,0 0,2 0,2 14,0 14,0 0,2 0,2 2,0 2,0 0,2 0,2 2,0 2,0 0,2 0,2 2,0 2,0 0,2 0,2 2,0 2,0 0,6 0,6 2,0 2,0 0,10 0,10 -2,0 -2,0 0,2 0,2 -2,0 -2,0 0,2 0,2 -2,0 -2,0 0,2 0,2 -4,0 -4,0 0,2 0,2 -2,0 -2,0 0,2 0,2 -2,0 -2,0 0,2 0,2 -8,0 -8,0 0,-2 0,-2 -2,0 -2,0 0,-2 0,-2 -2,0 -2,0 0,-2 0,-2 -2,0 -2,0 0,2 0,2 -48,0 -48,0 0,-2 0,-2 -2,0 -2,0 0,2 0,2 -2,0 -2,0 0,2 0,2 -2,0 -2,0 0,2 0,2 -8,0 -8,0 0,-2 z m 12,-10 0,-4 -4,0 -4,0 0,4 0,4 4,0 4,0 0,-4 z m 136,0 0,-4 -4,0 -4,0 0,4 0,4 4,0 4,0 0,-4 z m -152,-6 0,-2 18,0 18,0 0,-2 0,-2 2,0 2,0 0,2 0,2 22,0 22,0 0,-2 0,-2 2,0 2,0 0,2 0,2 24,0 24,0 0,-2 0,-2 2,0 2,0 0,2 0,2 18,0 18,0 0,-2 0,-2 2,0 2,0 0,-10 0,-10 -2,0 -2,0 0,2 0,2 -4,0 -4,0 0,2 0,2 -12,0 -12,0 0,-2 0,-2 2,0 2,0 0,-6 0,-6 2,0 2,0 0,4 0,4 8,0 8,0 0,-2 0,-2 2,0 2,0 0,-2 0,-2 2,0 2,0 0,-2 0,-2 -2,0 -2,0 0,-2 0,-2 -2,0 -2,0 0,-2 0,-2 -2,0 -2,0 0,-2 0,-2 -12,0 -12,0 0,2 0,2 -2,0 -2,0 0,-4 0,-4 -2,0 -2,0 0,-2 0,-2 -4,0 -4,0 0,6 0,6 2,0 2,0 0,2 0,2 2,0 2,0 0,2 0,2 -4,0 -4,0 0,-2 0,-2 -12,0 -12,0 0,4 0,4 -2,0 -2,0 0,-4 0,-4 -10,0 -10,0 0,2 0,2 -4,0 -4,0 0,2 0,2 -4,0 -4,0 0,-2 0,-2 2,0 2,0 0,-2 0,-2 -2,0 -2,0 0,-2 0,-2 6,0 6,0 0,-2 0,-2 24,0 24,0 0,-6 0,-6 -2,0 -2,0 0,-2 0,-2 -6,0 -6,0 0,-2 0,-2 -12,0 -12,0 0,2 0,2 -10,0 -10,0 0,10 0,10 -2,0 -2,0 0,-8 0,-8 -4,0 -4,0 0,2 0,2 -2,0 -2,0 0,2 0,2 -6,0 -6,0 0,4 0,4 -2,0 -2,0 0,-2 0,-2 -10,0 -10,0 0,2 0,2 -6,0 -6,0 0,2 0,2 -4,0 -4,0 0,2 0,2 -2,0 -2,0 0,2 0,2 -2,0 -2,0 0,8 0,8 2,0 2,0 0,2 0,2 -2,0 -2,0 0,6 0,6 4,0 4,0 0,2 0,2 6,0 6,0 0,-2 z m -12,-8 0,-2 -2,0 -2,0 0,-2 0,-2 14,0 14,0 0,-2 0,-2 8,0 8,0 0,-2 0,-2 2,0 2,0 0,-2 0,-2 -2,0 -2,0 0,-2 0,-2 -2,0 -2,0 0,-8 0,-8 2,0 2,0 0,8 0,8 2,0 2,0 0,2 0,2 2,0 2,0 0,2 0,2 4,0 4,0 0,-2 0,-2 4,0 4,0 0,-2 0,-2 2,0 2,0 0,-2 0,-2 2,0 2,0 0,4 0,4 -4,0 -4,0 0,2 0,2 2,0 2,0 0,2 0,2 18,0 18,0 0,-8 0,-8 2,0 2,0 0,8 0,8 16,0 16,0 0,-2 0,-2 2,0 2,0 0,-2 0,-2 2,0 2,0 0,-4 0,-4 -2,0 -2,0 0,-2 0,-2 2,0 2,0 0,2 0,2 2,0 2,0 0,4 0,4 2,0 2,0 0,2 0,2 -2,0 -2,0 0,-2 0,-2 -2,0 -2,0 0,2 0,2 -2,0 -2,0 0,2 0,2 6,0 6,0 0,2 0,2 -4,0 -4,0 0,4 0,4 -2,0 -2,0 0,-4 0,-4 -20,0 -20,0 0,4 0,4 -2,0 -2,0 0,-4 0,-4 -18,0 -18,0 0,2 0,2 -2,0 -2,0 0,-2 0,-2 -2,0 -2,0 0,4 0,4 -2,0 -2,0 0,-2 0,-2 -10,0 -10,0 0,2 0,2 -16,0 -16,0 0,-2 z m 64,-10 0,-4 -2,0 -2,0 0,4 0,4 2,0 2,0 0,-4 z m 20,10 0,-2 4,0 4,0 0,2 0,2 -4,0 -4,0 0,-2 z m 48,0 0,-2 4,0 4,0 0,2 0,2 -4,0 -4,0 0,-2 z m -132,-24 0,-2 2,0 2,0 0,2 0,2 -2,0 -2,0 0,-2 z m 8,-4 0,-2 2,0 2,0 0,2 0,2 -2,0 -2,0 0,-2 z m 148,-2 0,-4 -2,0 -2,0 0,-2 0,-2 2,0 2,0 0,2 0,2 2,0 2,0 0,4 0,4 -2,0 -2,0 0,-4 z m -140,-2 0,-2 6,0 6,0 0,2 0,2 -6,0 -6,0 0,-2 z"
         id="path3261"
         style="fill:#a73520" />
      <path
         d="m 171.62848,402.52695 0,-2 -2,0 -2,0 0,-2 0,-2 -2,0 -2,0 0,-2 0,-2 -2,0 -2,0 0,2 0,2 -2,0 -2,0 0,-2 0,-2 -2,0 -2,0 0,-2 0,-2 -2,0 -2,0 0,-2 0,-2 -2,0 -2,0 0,-16 0,-16 2,0 2,0 0,-4 0,-4 4,0 4,0 0,-2 0,-2 4,0 4,0 0,-2 0,-2 6,0 6,0 0,-2 0,-2 12,0 12,0 0,-2 0,-2 6,0 6,0 0,-2 0,-2 2,0 2,0 0,-2 0,-2 6,0 6,0 0,-2 0,-2 10,0 10,0 0,-2 0,-2 12,0 12,0 0,2 0,2 6,0 6,0 0,2 0,2 4,0 4,0 0,2 0,2 4,0 4,0 0,2 0,2 2,0 2,0 0,2 0,2 14,0 14,0 0,2 0,2 2,0 2,0 0,2 0,2 2,0 2,0 0,2 0,2 2,0 2,0 0,2 0,2 2,0 2,0 0,6 0,6 2,0 2,0 0,10 0,10 -2,0 -2,0 0,2 0,2 -2,0 -2,0 0,2 0,2 -2,0 -2,0 0,2 0,2 -4,0 -4,0 0,2 0,2 -2,0 -2,0 0,2 0,2 -2,0 -2,0 0,2 0,2 -8,0 -8,0 0,-2 0,-2 -2,0 -2,0 0,-2 0,-2 -2,0 -2,0 0,-2 0,-2 -2,0 -2,0 0,2 0,2 -48,0 -48,0 0,-2 0,-2 -2,0 -2,0 0,2 0,2 -2,0 -2,0 0,2 0,2 -2,0 -2,0 0,2 0,2 -8,0 -8,0 0,-2 z m 12,-10 0,-4 -4,0 -4,0 0,4 0,4 4,0 4,0 0,-4 z m 136,0 0,-4 -4,0 -4,0 0,4 0,4 4,0 4,0 0,-4 z m -152,-6 0,-2 18,0 18,0 0,-2 0,-2 2,0 2,0 0,2 0,2 22,0 22,0 0,-2 0,-2 2,0 2,0 0,2 0,2 24,0 24,0 0,-2 0,-2 2,0 2,0 0,2 0,2 18,0 18,0 0,-2 0,-2 2,0 2,0 0,-10 0,-10 -2,0 -2,0 0,2 0,2 -4,0 -4,0 0,2 0,2 -12,0 -12,0 0,-2 0,-2 2,0 2,0 0,-6 0,-6 2,0 2,0 0,4 0,4 8,0 8,0 0,-2 0,-2 2,0 2,0 0,-2 0,-2 2,0 2,0 0,-2 0,-2 -2,0 -2,0 0,-2 0,-2 -2,0 -2,0 0,-2 0,-2 -2,0 -2,0 0,-2 0,-2 -12,0 -12,0 0,2 0,2 -2,0 -2,0 0,-4 0,-4 -2,0 -2,0 0,-2 0,-2 -4,0 -4,0 0,6 0,6 2,0 2,0 0,2 0,2 2,0 2,0 0,2 0,2 -4,0 -4,0 0,-2 0,-2 -12,0 -12,0 0,4 0,4 -2,0 -2,0 0,-4 0,-4 -10,0 -10,0 0,2 0,2 -4,0 -4,0 0,2 0,2 -4,0 -4,0 0,-2 0,-2 2,0 2,0 0,-2 0,-2 -2,0 -2,0 0,-2 0,-2 6,0 6,0 0,-2 0,-2 24,0 24,0 0,-6 0,-6 -2,0 -2,0 0,-2 0,-2 -6,0 -6,0 0,-2 0,-2 -12,0 -12,0 0,2 0,2 -10,0 -10,0 0,10 0,10 -2,0 -2,0 0,-8 0,-8 -4,0 -4,0 0,2 0,2 -2,0 -2,0 0,2 0,2 -6,0 -6,0 0,4 0,4 -2,0 -2,0 0,-2 0,-2 -10,0 -10,0 0,2 0,2 -6,0 -6,0 0,2 0,2 -4,0 -4,0 0,2 0,2 -2,0 -2,0 0,2 0,2 -2,0 -2,0 0,8 0,8 2,0 2,0 0,2 0,2 -2,0 -2,0 0,6 0,6 4,0 4,0 0,2 0,2 6,0 6,0 0,-2 z m -12,-8 0,-2 -2,0 -2,0 0,-2 0,-2 14,0 14,0 0,-2 0,-2 8,0 8,0 0,-2 0,-2 2,0 2,0 0,-2 0,-2 -2,0 -2,0 0,-2 0,-2 -2,0 -2,0 0,-8 0,-8 2,0 2,0 0,8 0,8 2,0 2,0 0,2 0,2 2,0 2,0 0,2 0,2 4,0 4,0 0,-2 0,-2 4,0 4,0 0,-2 0,-2 2,0 2,0 0,-2 0,-2 2,0 2,0 0,4 0,4 -4,0 -4,0 0,2 0,2 2,0 2,0 0,2 0,2 18,0 18,0 0,-8 0,-8 2,0 2,0 0,8 0,8 16,0 16,0 0,-2 0,-2 2,0 2,0 0,-2 0,-2 2,0 2,0 0,-4 0,-4 -2,0 -2,0 0,-2 0,-2 2,0 2,0 0,2 0,2 2,0 2,0 0,4 0,4 2,0 2,0 0,2 0,2 -2,0 -2,0 0,-2 0,-2 -2,0 -2,0 0,2 0,2 -2,0 -2,0 0,2 0,2 6,0 6,0 0,2 0,2 -4,0 -4,0 0,4 0,4 -2,0 -2,0 0,-4 0,-4 -20,0 -20,0 0,4 0,4 -2,0 -2,0 0,-4 0,-4 -18,0 -18,0 0,2 0,2 -2,0 -2,0 0,-2 0,-2 -2,0 -2,0 0,4 0,4 -2,0 -2,0 0,-2 0,-2 -10,0 -10,0 0,2 0,2 -16,0 -16,0 0,-2 z m 64,-10 0,-4 -2,0 -2,0 0,4 0,4 2,0 2,0 0,-4 z m 20,10 0,-2 4,0 4,0 0,2 0,2 -4,0 -4,0 0,-2 z m 48,0 0,-2 4,0 4,0 0,2 0,2 -4,0 -4,0 0,-2 z m 24,-30 0,-4 -2,0 -2,0 0,-2 0,-2 2,0 2,0 0,2 0,2 2,0 2,0 0,4 0,4 -2,0 -2,0 0,-4 z"
         id="path3259"
         style="fill:#982d1f" />
      <path
         d="m 171.62848,402.52695 0,-2 -2,0 -2,0 0,-2 0,-2 -2,0 -2,0 0,-2 0,-2 -2,0 -2,0 0,2 0,2 -2,0 -2,0 0,-2 0,-2 -2,0 -2,0 0,-2 0,-2 -2,0 -2,0 0,-2 0,-2 -2,0 -2,0 0,-16 0,-16 2,0 2,0 0,-4 0,-4 4,0 4,0 0,-2 0,-2 4,0 4,0 0,-2 0,-2 6,0 6,0 0,-2 0,-2 12,0 12,0 0,-2 0,-2 6,0 6,0 0,-2 0,-2 2,0 2,0 0,-2 0,-2 6,0 6,0 0,-2 0,-2 10,0 10,0 0,-2 0,-2 12,0 12,0 0,2 0,2 6,0 6,0 0,2 0,2 4,0 4,0 0,2 0,2 4,0 4,0 0,2 0,2 2,0 2,0 0,2 0,2 14,0 14,0 0,2 0,2 2,0 2,0 0,2 0,2 2,0 2,0 0,2 0,2 2,0 2,0 0,2 0,2 2,0 2,0 0,6 0,6 2,0 2,0 0,10 0,10 -2,0 -2,0 0,2 0,2 -2,0 -2,0 0,2 0,2 -2,0 -2,0 0,2 0,2 -4,0 -4,0 0,2 0,2 -2,0 -2,0 0,2 0,2 -2,0 -2,0 0,2 0,2 -8,0 -8,0 0,-2 0,-2 -2,0 -2,0 0,-2 0,-2 -2,0 -2,0 0,-2 0,-2 -2,0 -2,0 0,2 0,2 -48,0 -48,0 0,-2 0,-2 -2,0 -2,0 0,2 0,2 -2,0 -2,0 0,2 0,2 -2,0 -2,0 0,2 0,2 -8,0 -8,0 0,-2 z m 12,-10 0,-4 -4,0 -4,0 0,4 0,4 4,0 4,0 0,-4 z m 136,0 0,-4 -4,0 -4,0 0,4 0,4 4,0 4,0 0,-4 z m -152,-6 0,-2 12,0 12,0 0,2 0,2 6,0 6,0 0,-4 0,-4 2,0 2,0 0,4 0,4 22,0 22,0 0,-4 0,-4 2,0 2,0 0,4 0,4 24,0 24,0 0,-4 0,-4 2,0 2,0 0,2 0,2 18,0 18,0 0,-2 0,-2 2,0 2,0 0,-10 0,-10 -2,0 -2,0 0,-6 0,-6 -2,0 -2,0 0,-2 0,-2 -2,0 -2,0 0,-2 0,-2 -2,0 -2,0 0,-2 0,-2 -12,0 -12,0 0,2 0,2 -2,0 -2,0 0,-4 0,-4 -2,0 -2,0 0,-2 0,-2 -4,0 -4,0 0,6 0,6 2,0 2,0 0,2 0,2 2,0 2,0 0,2 0,2 -4,0 -4,0 0,-2 0,-2 -12,0 -12,0 0,4 0,4 -2,0 -2,0 0,-4 0,-4 -10,0 -10,0 0,-2 0,-2 22,0 22,0 0,-8 0,-8 -2,0 -2,0 0,-2 0,-2 -6,0 -6,0 0,-2 0,-2 -12,0 -12,0 0,2 0,2 -10,0 -10,0 0,10 0,10 -2,0 -2,0 0,-8 0,-8 -4,0 -4,0 0,2 0,2 -2,0 -2,0 0,2 0,2 -6,0 -6,0 0,4 0,4 -2,0 -2,0 0,-2 0,-2 -10,0 -10,0 0,2 0,2 -6,0 -6,0 0,2 0,2 -4,0 -4,0 0,2 0,2 -2,0 -2,0 0,2 0,2 -2,0 -2,0 0,8 0,8 2,0 2,0 0,2 0,2 -2,0 -2,0 0,6 0,6 4,0 4,0 0,2 0,2 6,0 6,0 0,-2 z m -12,-8 0,-2 -2,0 -2,0 0,-2 0,-2 2,0 2,0 0,2 0,2 16,0 16,0 0,-2 0,-2 12,0 12,0 0,-2 0,-2 -4,0 -4,0 0,-2 0,-2 -2,0 -2,0 0,-2 0,-2 -2,0 -2,0 0,-2 0,-2 -2,0 -2,0 0,-8 0,-8 2,0 2,0 0,8 0,8 2,0 2,0 0,2 0,2 2,0 2,0 0,2 0,2 4,0 4,0 0,-2 0,-2 4,0 4,0 0,-2 0,-2 2,0 2,0 0,-2 0,-2 2,0 2,0 0,-2 0,-2 2,0 2,0 0,-2 0,-2 -2,0 -2,0 0,-2 0,-2 2,0 2,0 0,2 0,2 6,0 6,0 0,2 0,2 -4,0 -4,0 0,2 0,2 -4,0 -4,0 0,4 0,4 -4,0 -4,0 0,2 0,2 2,0 2,0 0,2 0,2 18,0 18,0 0,-8 0,-8 2,0 2,0 0,8 0,8 16,0 16,0 0,-2 0,-2 2,0 2,0 0,-2 0,-2 2,0 2,0 0,-4 0,-4 -2,0 -2,0 0,-2 0,-2 2,0 2,0 0,2 0,2 2,0 2,0 0,4 0,4 2,0 2,0 0,2 0,2 2,0 2,0 0,-6 0,-6 -2,0 -2,0 0,-4 0,-4 -2,0 -2,0 0,-2 0,-2 2,0 2,0 0,2 0,2 2,0 2,0 0,4 0,4 2,0 2,0 0,6 0,6 8,0 8,0 0,-2 0,-2 4,0 4,0 0,2 0,2 -4,0 -4,0 0,2 0,2 -12,0 -12,0 0,2 0,2 -4,0 -4,0 0,4 0,4 -2,0 -2,0 0,-4 0,-4 -20,0 -20,0 0,4 0,4 -2,0 -2,0 0,-4 0,-4 -18,0 -18,0 0,2 0,2 -2,0 -2,0 0,-2 0,-2 -2,0 -2,0 0,4 0,4 -2,0 -2,0 0,-2 0,-2 -10,0 -10,0 0,2 0,2 -16,0 -16,0 0,-2 z m 64,-10 0,-4 -2,0 -2,0 0,4 0,4 2,0 2,0 0,-4 z m 92,-2 0,-2 -2,0 -2,0 0,-2 0,-2 -2,0 -2,0 0,2 0,2 -2,0 -2,0 0,2 0,2 6,0 6,0 0,-2 z m -72,12 0,-2 4,0 4,0 0,2 0,2 -4,0 -4,0 0,-2 z m 48,0 0,-2 4,0 4,0 0,2 0,2 -4,0 -4,0 0,-2 z"
         id="path3257"
         style="fill:#920200" />
      <path
         d="m 171.62848,402.52695 0,-2 -2,0 -2,0 0,-2 0,-2 -2,0 -2,0 0,-2 0,-2 -2,0 -2,0 0,2 0,2 -2,0 -2,0 0,-2 0,-2 -2,0 -2,0 0,-2 0,-2 -2,0 -2,0 0,-2 0,-2 -2,0 -2,0 0,-16 0,-16 2,0 2,0 0,-4 0,-4 4,0 4,0 0,-2 0,-2 4,0 4,0 0,-2 0,-2 6,0 6,0 0,-2 0,-2 12,0 12,0 0,-2 0,-2 6,0 6,0 0,-2 0,-2 2,0 2,0 0,-2 0,-2 6,0 6,0 0,-2 0,-2 10,0 10,0 0,-2 0,-2 12,0 12,0 0,2 0,2 6,0 6,0 0,2 0,2 4,0 4,0 0,2 0,2 4,0 4,0 0,2 0,2 2,0 2,0 0,2 0,2 14,0 14,0 0,2 0,2 2,0 2,0 0,2 0,2 2,0 2,0 0,2 0,2 2,0 2,0 0,2 0,2 2,0 2,0 0,6 0,6 2,0 2,0 0,10 0,10 -2,0 -2,0 0,2 0,2 -2,0 -2,0 0,2 0,2 -2,0 -2,0 0,2 0,2 -4,0 -4,0 0,2 0,2 -2,0 -2,0 0,2 0,2 -2,0 -2,0 0,2 0,2 -8,0 -8,0 0,-2 0,-2 -2,0 -2,0 0,-2 0,-2 -2,0 -2,0 0,-2 0,-2 -2,0 -2,0 0,2 0,2 -48,0 -48,0 0,-2 0,-2 -2,0 -2,0 0,2 0,2 -2,0 -2,0 0,2 0,2 -2,0 -2,0 0,2 0,2 -8,0 -8,0 0,-2 z m 12,-10 0,-4 -4,0 -4,0 0,4 0,4 4,0 4,0 0,-4 z m 136,0 0,-4 -4,0 -4,0 0,4 0,4 4,0 4,0 0,-4 z m -152,-6 0,-2 12,0 12,0 0,2 0,2 6,0 6,0 0,-4 0,-4 2,0 2,0 0,4 0,4 22,0 22,0 0,-4 0,-4 2,0 2,0 0,4 0,4 24,0 24,0 0,-4 0,-4 2,0 2,0 0,2 0,2 10,0 10,0 0,2 0,2 6,0 6,0 0,-2 0,-2 2,0 2,0 0,-2 0,-2 2,0 2,0 0,-10 0,-10 -2,0 -2,0 0,-6 0,-6 -2,0 -2,0 0,-2 0,-2 -2,0 -2,0 0,-2 0,-2 -2,0 -2,0 0,-2 0,-2 -12,0 -12,0 0,2 0,2 -2,0 -2,0 0,-4 0,-4 -2,0 -2,0 0,-2 0,-2 -4,0 -4,0 0,6 0,6 2,0 2,0 0,2 0,2 2,0 2,0 0,2 0,2 -4,0 -4,0 0,-2 0,-2 -12,0 -12,0 0,4 0,4 -2,0 -2,0 0,-4 0,-4 -10,0 -10,0 0,-2 0,-2 22,0 22,0 0,-8 0,-8 -2,0 -2,0 0,-2 0,-2 -6,0 -6,0 0,-2 0,-2 -12,0 -12,0 0,2 0,2 -10,0 -10,0 0,10 0,10 -2,0 -2,0 0,-8 0,-8 -4,0 -4,0 0,2 0,2 -2,0 -2,0 0,2 0,2 -6,0 -6,0 0,4 0,4 -2,0 -2,0 0,-2 0,-2 -10,0 -10,0 0,2 0,2 -6,0 -6,0 0,2 0,2 -4,0 -4,0 0,2 0,2 -2,0 -2,0 0,2 0,2 -2,0 -2,0 0,8 0,8 2,0 2,0 0,2 0,2 -2,0 -2,0 0,6 0,6 2,0 2,0 0,2 0,2 8,0 8,0 0,-2 z m -12,-8 0,-2 -2,0 -2,0 0,-2 0,-2 2,0 2,0 0,2 0,2 16,0 16,0 0,-2 0,-2 12,0 12,0 0,-2 0,-2 -4,0 -4,0 0,-2 0,-2 -2,0 -2,0 0,-2 0,-2 -2,0 -2,0 0,-2 0,-2 -2,0 -2,0 0,-8 0,-8 2,0 2,0 0,8 0,8 2,0 2,0 0,2 0,2 2,0 2,0 0,2 0,2 4,0 4,0 0,-2 0,-2 4,0 4,0 0,-2 0,-2 2,0 2,0 0,-2 0,-2 2,0 2,0 0,-2 0,-2 2,0 2,0 0,-2 0,-2 -2,0 -2,0 0,-2 0,-2 2,0 2,0 0,2 0,2 6,0 6,0 0,2 0,2 -4,0 -4,0 0,2 0,2 -4,0 -4,0 0,4 0,4 -4,0 -4,0 0,2 0,2 2,0 2,0 0,2 0,2 18,0 18,0 0,-8 0,-8 2,0 2,0 0,8 0,8 16,0 16,0 0,-2 0,-2 2,0 2,0 0,-2 0,-2 2,0 2,0 0,-4 0,-4 -2,0 -2,0 0,-2 0,-2 2,0 2,0 0,2 0,2 2,0 2,0 0,4 0,4 2,0 2,0 0,2 0,2 2,0 2,0 0,-6 0,-6 -2,0 -2,0 0,-4 0,-4 -2,0 -2,0 0,-2 0,-2 2,0 2,0 0,2 0,2 2,0 2,0 0,4 0,4 2,0 2,0 0,6 0,6 8,0 8,0 0,-2 0,-2 4,0 4,0 0,2 0,2 -4,0 -4,0 0,2 0,2 -12,0 -12,0 0,2 0,2 -4,0 -4,0 0,4 0,4 -2,0 -2,0 0,-4 0,-4 -20,0 -20,0 0,4 0,4 -2,0 -2,0 0,-4 0,-4 -18,0 -18,0 0,2 0,2 -2,0 -2,0 0,-2 0,-2 -2,0 -2,0 0,4 0,4 -2,0 -2,0 0,-2 0,-2 -10,0 -10,0 0,2 0,2 -16,0 -16,0 0,-2 z m 64,-10 0,-4 -2,0 -2,0 0,4 0,4 2,0 2,0 0,-4 z m 92,-2 0,-2 -2,0 -2,0 0,-2 0,-2 -2,0 -2,0 0,2 0,2 -2,0 -2,0 0,2 0,2 6,0 6,0 0,-2 z m -72,12 0,-2 4,0 4,0 0,2 0,2 -4,0 -4,0 0,-2 z m 48,0 0,-2 4,0 4,0 0,2 0,2 -4,0 -4,0 0,-2 z"
         id="path3255"
         style="fill:#530000" />
      <path
         d="m 171.62848,402.52695 0,-2 -2,0 -2,0 0,-2 0,-2 -2,0 -2,0 0,-2 0,-2 -2,0 -2,0 0,2 0,2 -2,0 -2,0 0,-2 0,-2 -2,0 -2,0 0,-2 0,-2 -2,0 -2,0 0,-2 0,-2 -2,0 -2,0 0,-16 0,-16 2,0 2,0 0,-4 0,-4 4,0 4,0 0,-2 0,-2 4,0 4,0 0,-2 0,-2 6,0 6,0 0,-2 0,-2 12,0 12,0 0,-2 0,-2 6,0 6,0 0,-2 0,-2 2,0 2,0 0,-2 0,-2 6,0 6,0 0,-2 0,-2 10,0 10,0 0,-2 0,-2 12,0 12,0 0,2 0,2 6,0 6,0 0,2 0,2 4,0 4,0 0,2 0,2 4,0 4,0 0,2 0,2 2,0 2,0 0,2 0,2 14,0 14,0 0,2 0,2 2,0 2,0 0,2 0,2 2,0 2,0 0,2 0,2 2,0 2,0 0,2 0,2 2,0 2,0 0,6 0,6 2,0 2,0 0,10 0,10 -2,0 -2,0 0,2 0,2 -2,0 -2,0 0,2 0,2 -2,0 -2,0 0,2 0,2 -4,0 -4,0 0,2 0,2 -2,0 -2,0 0,2 0,2 -2,0 -2,0 0,2 0,2 -8,0 -8,0 0,-2 0,-2 -2,0 -2,0 0,-2 0,-2 -2,0 -2,0 0,-2 0,-2 -2,0 -2,0 0,2 0,2 -48,0 -48,0 0,-2 0,-2 -2,0 -2,0 0,2 0,2 -2,0 -2,0 0,2 0,2 -2,0 -2,0 0,2 0,2 -8,0 -8,0 0,-2 z m 12,-10 0,-4 -4,0 -4,0 0,4 0,4 4,0 4,0 0,-4 z m 136,0 0,-4 -4,0 -4,0 0,4 0,4 4,0 4,0 0,-4 z m -160,-2 0,-2 4,0 4,0 0,-2 0,-2 12,0 12,0 0,2 0,2 4,0 4,0 0,2 0,2 2,0 2,0 0,-6 0,-6 2,0 2,0 0,6 0,6 22,0 22,0 0,-6 0,-6 2,0 2,0 0,6 0,6 20,0 20,0 0,-2 0,-2 4,0 4,0 0,-4 0,-4 2,0 2,0 0,2 0,2 10,0 10,0 0,2 0,2 6,0 6,0 0,-2 0,-2 2,0 2,0 0,-2 0,-2 2,0 2,0 0,-10 0,-10 -2,0 -2,0 0,-6 0,-6 -2,0 -2,0 0,-2 0,-2 -2,0 -2,0 0,-2 0,-2 -2,0 -2,0 0,-2 0,-2 -12,0 -12,0 0,2 0,2 -2,0 -2,0 0,-4 0,-4 -2,0 -2,0 0,-2 0,-2 -4,0 -4,0 0,6 0,6 2,0 2,0 0,2 0,2 2,0 2,0 0,2 0,2 -4,0 -4,0 0,-2 0,-2 -12,0 -12,0 0,4 0,4 -2,0 -2,0 0,-4 0,-4 -10,0 -10,0 0,-2 0,-2 22,0 22,0 0,-8 0,-8 -2,0 -2,0 0,-2 0,-2 -6,0 -6,0 0,-2 0,-2 -12,0 -12,0 0,2 0,2 -10,0 -10,0 0,10 0,10 -2,0 -2,0 0,-8 0,-8 -4,0 -4,0 0,2 0,2 -2,0 -2,0 0,2 0,2 -6,0 -6,0 0,4 0,4 -2,0 -2,0 0,-2 0,-2 -10,0 -10,0 0,2 0,2 -6,0 -6,0 0,2 0,2 -4,0 -4,0 0,2 0,2 -2,0 -2,0 0,2 0,2 -2,0 -2,0 0,8 0,8 2,0 2,0 0,2 0,2 -2,0 -2,0 0,6 0,6 2,0 2,0 0,2 0,2 2,0 2,0 0,2 0,2 2,0 2,0 0,-2 z m -4,-12 0,-2 -2,0 -2,0 0,-2 0,-2 2,0 2,0 0,2 0,2 16,0 16,0 0,-2 0,-2 12,0 12,0 0,-2 0,-2 -4,0 -4,0 0,-2 0,-2 -2,0 -2,0 0,-2 0,-2 -2,0 -2,0 0,-2 0,-2 -2,0 -2,0 0,-8 0,-8 2,0 2,0 0,8 0,8 2,0 2,0 0,2 0,2 2,0 2,0 0,2 0,2 4,0 4,0 0,-2 0,-2 4,0 4,0 0,-2 0,-2 2,0 2,0 0,-2 0,-2 2,0 2,0 0,-2 0,-2 2,0 2,0 0,-2 0,-2 -2,0 -2,0 0,-2 0,-2 2,0 2,0 0,2 0,2 6,0 6,0 0,2 0,2 -4,0 -4,0 0,2 0,2 -4,0 -4,0 0,4 0,4 -4,0 -4,0 0,2 0,2 2,0 2,0 0,2 0,2 18,0 18,0 0,-8 0,-8 2,0 2,0 0,8 0,8 16,0 16,0 0,-2 0,-2 2,0 2,0 0,-2 0,-2 2,0 2,0 0,-4 0,-4 -2,0 -2,0 0,-2 0,-2 2,0 2,0 0,2 0,2 2,0 2,0 0,4 0,4 2,0 2,0 0,2 0,2 2,0 2,0 0,-6 0,-6 -2,0 -2,0 0,-4 0,-4 -2,0 -2,0 0,-2 0,-2 2,0 2,0 0,2 0,2 2,0 2,0 0,4 0,4 2,0 2,0 0,6 0,6 8,0 8,0 0,-2 0,-2 4,0 4,0 0,2 0,2 -4,0 -4,0 0,2 0,2 -12,0 -12,0 0,2 0,2 -4,0 -4,0 0,4 0,4 -2,0 -2,0 0,-4 0,-4 -20,0 -20,0 0,4 0,4 -2,0 -2,0 0,-4 0,-4 -18,0 -18,0 0,2 0,2 -2,0 -2,0 0,-2 0,-2 -2,0 -2,0 0,4 0,4 -2,0 -2,0 0,-2 0,-2 -10,0 -10,0 0,2 0,2 -16,0 -16,0 0,-2 z m 64,-10 0,-4 -2,0 -2,0 0,4 0,4 2,0 2,0 0,-4 z m 92,-2 0,-2 -2,0 -2,0 0,-2 0,-2 -2,0 -2,0 0,2 0,2 -2,0 -2,0 0,2 0,2 6,0 6,0 0,-2 z m -72,12 0,-2 4,0 4,0 0,2 0,2 -4,0 -4,0 0,-2 z m 48,0 0,-2 4,0 4,0 0,2 0,2 -4,0 -4,0 0,-2 z"
         id="path3253"
         style="fill:#000000" />
    </g>
  </g>
</svg>
